# xmcd
#
# Track frame offsets: 
#        150
#        22051
#        42225
#        59631
#        80805
#        99511
#        117631
#        134415
#        154365
#        168156
#        190566
#
# Disc length: 2738 seconds
#
# Revision: 0
# Processed by: cddbd v1.5.2PL0 Copyright (c) Steve Scherf et al.
# Submitted via: ExactAudioCopyFreeDBPlugin 1.0
#
DISCID=9a0ab00b
DTITLE=Randy Crawford - Raw Silk
DYEAR=1979
DGENRE=Soul
TTITLE0=I Stand Accused
TTITLE1=Declaration Of Love
TTITLE2=Someone To Believe In
TTITLE3=Endlessly
TTITLE4=Love Is Like A Newborn Child
TTITLE5=Where There Was Darkness
TTITLE6=Nobody
TTITLE7=I Hope You'll Be Very Unhappy Without Me
TTITLE8=I Got Myself A Happy Song
TTITLE9=Just To Keep You Satisfied
TTITLE10=Blue Mood
EXTD=
EXTT0=
EXTT1=
EXTT2=
EXTT3=
EXTT4=
EXTT5=
EXTT6=
EXTT7=
EXTT8=
EXTT9=
EXTT10=
PLAYORDER=
